<svg width="54" height="54" viewBox="0 0 54 54" fill="none" xmlns="http://www.w3.org/2000/svg">
<g clip-path="url(#clip0_36_59)">
<path d="M47.25 36.945V44.901C47.2503 45.4706 47.0344 46.0192 46.6461 46.4359C46.2577 46.8527 45.7257 47.1066 45.1575 47.1465C44.1742 47.214 43.371 47.25 42.75 47.25C22.8668 47.25 6.75 31.1333 6.75 11.25C6.75 10.629 6.78375 9.82575 6.8535 8.8425C6.89338 8.27425 7.14731 7.74227 7.56406 7.35392C7.98081 6.96557 8.52935 6.74974 9.099 6.75H17.055C17.3341 6.74972 17.6033 6.85318 17.8104 7.0403C18.0175 7.22741 18.1476 7.48481 18.1755 7.7625C18.2273 8.28 18.2745 8.69175 18.3195 9.0045C18.7667 12.1251 19.683 15.1601 21.0375 18.0068C21.2513 18.4568 21.1118 18.9945 20.7067 19.2825L15.8512 22.752C18.82 29.6695 24.3327 35.1822 31.2502 38.151L34.7153 33.3045C34.8569 33.1065 35.0635 32.9645 35.2991 32.9032C35.5347 32.842 35.7844 32.8653 36.0045 32.9692C38.8508 34.3212 41.8851 35.2353 45.0045 35.6805C45.3173 35.7255 45.729 35.775 46.242 35.8245C46.5193 35.8529 46.7761 35.9833 46.9628 36.1903C47.1494 36.3973 47.2526 36.6663 47.2523 36.945H47.25Z" fill="white"/>
</g>
<defs>
<clipPath id="clip0_36_59">
<rect width="54" height="54" fill="white"/>
</clipPath>
</defs>
</svg>
