<svg width="41" height="41" viewBox="0 0 41 41" fill="none" xmlns="http://www.w3.org/2000/svg">
<g clip-path="url(#clip0_36_72)">
<path d="M20.5 3.41663C25.1415 3.41663 25.7206 3.43371 27.5417 3.51913C29.3611 3.60454 30.5996 3.88983 31.6895 4.3135C32.817 4.74742 33.7669 5.33508 34.7167 6.28321C35.5854 7.1372 36.2575 8.17022 36.6864 9.31038C37.1084 10.3986 37.3954 11.6388 37.4808 13.4582C37.5611 15.2793 37.5833 15.8584 37.5833 20.5C37.5833 25.1415 37.5662 25.7206 37.4808 27.5417C37.3954 29.3611 37.1084 30.5996 36.6864 31.6895C36.2588 32.8303 35.5865 33.8636 34.7167 34.7167C33.8625 35.5851 32.8295 36.2572 31.6895 36.6864C30.6013 37.1084 29.3611 37.3954 27.5417 37.4808C25.7206 37.5611 25.1415 37.5833 20.5 37.5833C15.8584 37.5833 15.2793 37.5662 13.4582 37.4808C11.6388 37.3954 10.4003 37.1084 9.31038 36.6864C8.16977 36.2584 7.13657 35.5862 6.28321 34.7167C5.41436 33.8629 4.74218 32.8298 4.3135 31.6895C3.88983 30.6013 3.60454 29.3611 3.51913 27.5417C3.43883 25.7206 3.41663 25.1415 3.41663 20.5C3.41663 15.8584 3.43371 15.2793 3.51913 13.4582C3.60454 11.6371 3.88983 10.4003 4.3135 9.31038C4.74099 8.16952 5.41333 7.13622 6.28321 6.28321C7.13681 5.41406 8.16994 4.74183 9.31038 4.3135C10.4003 3.88983 11.6371 3.60454 13.4582 3.51913C15.2793 3.43883 15.8584 3.41663 20.5 3.41663ZM20.5 11.9583C18.2346 11.9583 16.062 12.8582 14.4601 14.4601C12.8582 16.062 11.9583 18.2346 11.9583 20.5C11.9583 22.7654 12.8582 24.938 14.4601 26.5398C16.062 28.1417 18.2346 29.0416 20.5 29.0416C22.7654 29.0416 24.938 28.1417 26.5398 26.5398C28.1417 24.938 29.0416 22.7654 29.0416 20.5C29.0416 18.2346 28.1417 16.062 26.5398 14.4601C24.938 12.8582 22.7654 11.9583 20.5 11.9583ZM31.6041 11.5312C31.6041 10.9649 31.3791 10.4217 30.9787 10.0212C30.5782 9.62077 30.0351 9.39579 29.4687 9.39579C28.9024 9.39579 28.3592 9.62077 27.9587 10.0212C27.5583 10.4217 27.3333 10.9649 27.3333 11.5312C27.3333 12.0976 27.5583 12.6407 27.9587 13.0412C28.3592 13.4416 28.9024 13.6666 29.4687 13.6666C30.0351 13.6666 30.5782 13.4416 30.9787 13.0412C31.3791 12.6407 31.6041 12.0976 31.6041 11.5312ZM20.5 15.375C21.8592 15.375 23.1628 15.9149 24.1239 16.876C25.085 17.8372 25.625 19.1407 25.625 20.5C25.625 21.8592 25.085 23.1628 24.1239 24.1239C23.1628 25.085 21.8592 25.625 20.5 25.625C19.1407 25.625 17.8372 25.085 16.876 24.1239C15.9149 23.1628 15.375 21.8592 15.375 20.5C15.375 19.1407 15.9149 17.8372 16.876 16.876C17.8372 15.9149 19.1407 15.375 20.5 15.375Z" fill="white"/>
</g>
<defs>
<clipPath id="clip0_36_72">
<rect width="41" height="41" fill="white"/>
</clipPath>
</defs>
</svg>
