<svg width="41" height="41" viewBox="0 0 41 41" fill="none" xmlns="http://www.w3.org/2000/svg">
<g clip-path="url(#clip0_36_69)">
<path d="M37.8601 9.66233C36.5559 10.2392 35.1729 10.6181 33.7567 10.7864C35.2494 9.8937 36.3666 8.48873 36.9001 6.83333C35.4992 7.667 33.9634 8.25125 32.3627 8.56729C31.2875 7.41686 29.8623 6.65389 28.3088 6.397C26.7552 6.1401 25.1603 6.40367 23.772 7.14673C22.3837 7.88979 21.2797 9.07071 20.6318 10.5059C19.9839 11.9411 19.8283 13.5501 20.1891 15.0829C17.3484 14.9405 14.5693 14.2023 12.0323 12.9161C9.49539 11.63 7.25728 9.8247 5.46331 7.61746C4.82831 8.70814 4.49461 9.94801 4.49639 11.2101C4.49639 13.6872 5.75714 15.8755 7.67389 17.1568C6.53957 17.1211 5.43022 16.8147 4.43831 16.2633V16.3522C4.43865 18.0019 5.00952 19.6008 6.05413 20.8776C7.09874 22.1545 8.5528 23.0309 10.1698 23.358C9.11678 23.6434 8.01267 23.6855 6.94102 23.481C7.39692 24.9011 8.28549 26.143 9.48232 27.0329C10.6792 27.9227 12.1243 28.4161 13.6155 28.4438C12.1335 29.6077 10.4366 30.4681 8.62181 30.9758C6.80706 31.4835 4.91003 31.6285 3.03918 31.4026C6.305 33.5029 10.1067 34.6179 13.9896 34.6142C27.1318 34.6142 34.3188 23.727 34.3188 14.2851C34.3188 13.9776 34.3102 13.6667 34.2966 13.3626C35.6955 12.3515 36.9028 11.0991 37.8619 9.66404L37.8601 9.66233Z" fill="white"/>
</g>
<defs>
<clipPath id="clip0_36_69">
<rect width="41" height="41" fill="white"/>
</clipPath>
</defs>
</svg>
